<svg xmlns="http://www.w3.org/2000/svg" width="19.382" height="17.392" viewBox="0 0 19.382 17.392"><defs><style>.a{fill:#737373;}</style></defs><g transform="translate(0 0)"><path class="a" d="M147.4,0a.331.331,0,0,0-.332.332V12.411l-2.479-2.479a.332.332,0,0,0-.47.47l3.046,3.046a.332.332,0,0,0,.47,0l3.046-3.046a.332.332,0,0,0-.47-.47l-2.479,2.479V.332A.331.331,0,0,0,147.4,0Z" transform="translate(-137.713)"/><path class="a" d="M29.294,366.9a.442.442,0,0,0-.444.444v4.614a.443.443,0,0,0,.444.444H47.787a.443.443,0,0,0,.444-.444v-4.614a.444.444,0,0,0-.889,0v4.17h-17.6v-4.17A.442.442,0,0,0,29.294,366.9Z" transform="translate(-28.85 -355.011)"/></g></svg>