<svg xmlns="http://www.w3.org/2000/svg" width="14.025" height="13.491" viewBox="0 0 14.025 13.491"><defs><style>.a{fill:none;stroke:#707070;}</style></defs><g transform="translate(0.5 -9.926)"><g transform="translate(0 14.42)"><path class="a" d="M2.124,167.256H.425a.426.426,0,0,0-.425.425v7.648a.425.425,0,0,0,.425.425h1.7a.425.425,0,0,0,.425-.425v-7.648A.426.426,0,0,0,2.124,167.256Z" transform="translate(0 -167.256)"/></g><g transform="translate(3.399 10.433)"><path class="a" d="M142.28,14.42c-.068-.012-3.272,0-3.272,0l.447-1.221a2.2,2.2,0,0,0-.748-2.589,1.469,1.469,0,0,0-.983-.145.709.709,0,0,0-.433.325,1.764,1.764,0,0,0-.136.6,2.6,2.6,0,0,1-.721,1.378c-.66.643-2.709,2.5-2.709,2.5v6.8h7.081a1.287,1.287,0,0,0,1.11-1.9,1.286,1.286,0,0,0,.425-1.7,1.286,1.286,0,0,0,.425-1.7A1.3,1.3,0,0,0,142.28,14.42Z" transform="translate(-133.726 -10.433)"/></g></g></svg>