<svg xmlns="http://www.w3.org/2000/svg" width="15.55" height="16.495" viewBox="0 0 15.55 16.495"><defs><style>.a{fill:#737373;}</style></defs><path class="a" d="M26.4,10.6a2.952,2.952,0,0,0-2.336,1.151L19.53,9.217a2.959,2.959,0,0,0,.164-.973,2.894,2.894,0,0,0-.168-.976L24.055,4.74a2.946,2.946,0,1,0-.61-1.791,2.879,2.879,0,0,0,.168.976L19.088,6.453a2.946,2.946,0,1,0,.007,3.579l4.528,2.531A2.948,2.948,0,1,0,26.4,10.6Zm0-9.669a2.024,2.024,0,1,1-2.024,2.024A2.026,2.026,0,0,1,26.4.928Zm-9.645,9.34a2.024,2.024,0,1,1,2.024-2.024A2.026,2.026,0,0,1,16.752,10.269Zm9.645,5.3a2.024,2.024,0,1,1,2.024-2.024A2.026,2.026,0,0,1,26.4,15.567Z" transform="translate(-13.8)"/></svg>